<svg width="34" height="35" viewBox="0 0 34 35" fill="none" xmlns="http://www.w3.org/2000/svg">
<path d="M16.7926 0.707031C7.5197 0.707031 0 8.22673 0 17.4996C0 26.7724 7.5197 34.2921 16.7926 34.2921C26.0654 34.2921 33.5851 26.7724 33.5851 17.4996C33.5851 8.22673 26.0654 0.707031 16.7926 0.707031ZM11.9128 26.0927H7.82308V13.7886H11.9128V26.0927ZM9.86809 12.1084H9.84144C8.46905 12.1084 7.58145 11.1637 7.58145 9.98296C7.58145 8.77559 8.49621 7.85699 9.89525 7.85699C11.2943 7.85699 12.1552 8.77559 12.1819 9.98296C12.1819 11.1637 11.2943 12.1084 9.86809 12.1084ZM26.6596 26.0927H22.5704V19.5103C22.5704 17.856 21.9782 16.7278 20.4985 16.7278C19.3687 16.7278 18.6959 17.4888 18.4002 18.2235C18.292 18.4863 18.2656 18.8538 18.2656 19.2215V26.0927H14.1762C14.1762 26.0927 14.2297 14.9429 14.1762 13.7886H18.2656V15.5307C18.8091 14.6923 19.7815 13.4998 21.9513 13.4998C24.642 13.4998 26.6596 15.2583 26.6596 19.0375V26.0927Z" fill="#8E8E8E" fill-opacity="0.5"/>
</svg>
