<svg width="34" height="35" viewBox="0 0 34 35" fill="none" xmlns="http://www.w3.org/2000/svg">
<path d="M20.2693 17.4707C20.2693 19.243 18.8327 20.6796 17.0604 20.6796C15.2881 20.6796 13.8514 19.243 13.8514 17.4707C13.8514 15.6984 15.2881 14.2617 17.0604 14.2617C18.8327 14.2617 20.2693 15.6984 20.2693 17.4707Z" fill="#8E8E8E" fill-opacity="0.5"/>
<path d="M24.564 11.7952C24.4097 11.3772 24.1636 10.9988 23.8439 10.6883C23.5333 10.3685 23.1552 10.1224 22.7369 9.96813C22.3977 9.83638 21.8881 9.67957 20.9496 9.63685C19.9342 9.59054 19.6298 9.58057 17.0594 9.58057C14.4887 9.58057 14.1842 9.59029 13.1692 9.63659C12.2306 9.67957 11.7207 9.83638 11.3818 9.96813C10.9635 10.1224 10.5852 10.3685 10.2749 10.6883C9.95509 10.9988 9.70899 11.3769 9.55448 11.7952C9.42273 12.1344 9.26592 12.6442 9.2232 13.5828C9.17689 14.5979 9.16692 14.9023 9.16692 17.473C9.16692 20.0434 9.17689 20.3479 9.2232 21.3632C9.26592 22.3018 9.42273 22.8114 9.55448 23.1506C9.70899 23.5689 9.95483 23.9469 10.2746 24.2575C10.5852 24.5773 10.9633 24.8234 11.3815 24.9776C11.7207 25.1096 12.2306 25.2664 13.1692 25.3092C14.1842 25.3555 14.4884 25.3652 17.0591 25.3652C19.6301 25.3652 19.9345 25.3555 20.9493 25.3092C21.8879 25.2664 22.3977 25.1096 22.7369 24.9776C23.5765 24.6538 24.2401 23.9902 24.564 23.1506C24.6957 22.8114 24.8525 22.3018 24.8955 21.3632C24.9418 20.3479 24.9515 20.0434 24.9515 17.473C24.9515 14.9023 24.9418 14.5979 24.8955 13.5828C24.8528 12.6442 24.696 12.1344 24.564 11.7952ZM17.0594 22.4161C14.329 22.4161 12.1157 20.2031 12.1157 17.4728C12.1157 14.7424 14.329 12.5294 17.0594 12.5294C19.7894 12.5294 22.0027 14.7424 22.0027 17.4728C22.0027 20.2031 19.7894 22.4161 17.0594 22.4161ZM22.1982 13.4892C21.5602 13.4892 21.0429 12.9719 21.0429 12.3339C21.0429 11.6959 21.5602 11.1787 22.1982 11.1787C22.8362 11.1787 23.3535 11.6959 23.3535 12.3339C23.3532 12.9719 22.8362 13.4892 22.1982 13.4892Z" fill="#8E8E8E" fill-opacity="0.5"/>
<path d="M17.0586 0.707031C7.80086 0.707031 0.293419 8.21447 0.293419 17.4722C0.293419 26.7299 7.80086 34.2374 17.0586 34.2374C26.3163 34.2374 33.8238 26.7299 33.8238 17.4722C33.8238 8.21447 26.3163 0.707031 17.0586 0.707031ZM26.6274 21.4412C26.5808 22.466 26.4179 23.1656 26.18 23.7781C25.6799 25.0712 24.6576 26.0935 23.3645 26.5936C22.7523 26.8315 22.0524 26.9942 21.0278 27.041C20.0012 27.0878 19.6733 27.0991 17.0588 27.0991C14.4441 27.0991 14.1164 27.0878 13.0896 27.041C12.0651 26.9942 11.3651 26.8315 10.753 26.5936C10.1104 26.3518 9.52864 25.973 9.04771 25.4831C8.55807 25.0024 8.17921 24.4204 7.93746 23.7781C7.69955 23.1659 7.5366 22.466 7.49004 21.4414C7.44271 20.4146 7.43171 20.0866 7.43171 17.4722C7.43171 14.8578 7.44271 14.5298 7.48978 13.5032C7.53634 12.4784 7.69904 11.7788 7.93695 11.1663C8.1787 10.524 8.55782 9.942 9.04771 9.46132C9.52838 8.97143 10.1104 8.59257 10.7527 8.35082C11.3651 8.11291 12.0648 7.95021 13.0896 7.9034C14.1162 7.85658 14.4441 7.84533 17.0586 7.84533C19.673 7.84533 20.001 7.85658 21.0276 7.90365C22.0524 7.95021 22.752 8.11291 23.3645 8.35056C24.0068 8.59231 24.5888 8.97143 25.0697 9.46132C25.5594 9.94225 25.9385 10.524 26.18 11.1663C26.4181 11.7788 26.5808 12.4784 26.6277 13.5032C26.6745 14.5298 26.6855 14.8578 26.6855 17.4722C26.6855 20.0866 26.6745 20.4146 26.6274 21.4412V21.4412Z" fill="#8E8E8E" fill-opacity="0.5"/>
</svg>
