<svg width="35" height="35" viewBox="0 0 35 35" fill="none" xmlns="http://www.w3.org/2000/svg">
<path d="M17.4098 0.707031C8.15332 0.707031 0.646713 8.40319 0.646713 17.8971C0.646713 25.4905 5.44993 31.9325 12.1141 34.2076C12.9523 34.3659 13.2583 33.8352 13.2583 33.3793C13.2583 32.9705 13.2436 31.8897 13.2353 30.4558C8.57245 31.4938 7.58749 28.1508 7.58749 28.1508C6.82677 26.1647 5.72656 25.6361 5.72656 25.6361C4.20303 24.5702 5.83973 24.5916 5.83973 24.5916C7.52253 24.7136 8.40689 26.3637 8.40689 26.3637C9.90318 28.9898 12.332 28.2321 13.2877 27.7912C13.4385 26.6805 13.8723 25.9229 14.3522 25.4927C10.6304 25.0582 6.7157 23.5836 6.7157 16.9982C6.7157 15.1213 7.36955 13.5867 8.44252 12.384C8.26858 11.9495 7.69437 10.201 8.60598 7.83603C8.60598 7.83603 10.0143 7.37375 13.2164 9.59742C14.5534 9.21646 15.9868 9.02598 17.414 9.01956C18.8369 9.02812 20.2724 9.21646 21.6116 9.59956C24.8116 7.37589 26.2178 7.83817 26.2178 7.83817C27.1315 10.2052 26.5573 11.9516 26.3854 12.3861C27.4605 13.5889 28.1081 15.1234 28.1081 17.0004C28.1081 23.6029 24.1892 25.0561 20.4548 25.482C21.0562 26.0127 21.5927 27.0614 21.5927 28.6644C21.5927 30.963 21.5717 32.8164 21.5717 33.3793C21.5717 33.8394 21.8735 34.3745 22.7243 34.2054C29.378 31.9282 34.1771 25.4884 34.1771 17.8971C34.1771 8.40319 26.6705 0.707031 17.4098 0.707031Z" fill="#8E8E8E" fill-opacity="0.5"/>
</svg>
