<svg width="52" height="57" viewBox="0 0 52 57" fill="none" xmlns="http://www.w3.org/2000/svg">
<g filter="url(#filter0_d_2_2702)">
<path d="M41.9063 25.7144L25.8221 9.94114C25.1007 9.22104 24.1536 9.12598 23.2075 9.12598H12.1605C10.128 9.12598 9 10.2504 9 12.2763V23.2929C9 24.2338 9.09757 25.1757 9.81781 25.8936L25.7727 41.9258C27.2099 43.3572 29.4759 43.3572 30.912 41.9258L41.9392 30.9026C43.3753 29.4689 43.3424 27.1458 41.9063 25.7144V25.7144ZM16.0391 16.1423C15.3978 16.7815 14.3585 16.7815 13.7172 16.1423C13.0759 15.503 13.0748 14.4671 13.7172 13.8279C14.3585 13.1876 15.3978 13.1887 16.0391 13.8279C16.6804 14.4682 16.6815 15.503 16.0391 16.1423Z" fill="white"/>
<path d="M17.7178 12.1581C16.1502 10.5944 13.608 10.5944 12.0403 12.1581C10.4716 13.7207 10.4716 16.2547 12.0403 17.8183C13.608 19.3809 16.1502 19.3809 17.7189 17.8183C19.2866 16.2547 19.2855 13.7218 17.7178 12.1581ZM16.0406 16.1465C15.3993 16.7857 14.3589 16.7857 13.7176 16.1465C13.0763 15.5073 13.0752 14.4703 13.7176 13.831C14.3589 13.1896 15.3993 13.1918 16.0406 13.831C16.6819 14.4703 16.683 15.5062 16.0406 16.1465Z" fill="white"/>
<path d="M16.1341 15.1381C15.7055 15.5654 15.0127 15.5654 14.5829 15.1381C14.1543 14.7109 14.1554 14.0203 14.5829 13.593L23.8847 4.32141C24.3133 3.89416 25.0061 3.89416 25.4359 4.32141C25.8645 4.74866 25.8634 5.43925 25.4359 5.8665L16.1341 15.1381V15.1381Z" fill="white"/>
</g>
<defs>
<filter id="filter0_d_2_2702" x="0" y="0.000976562" width="52" height="56.9985" filterUnits="userSpaceOnUse" color-interpolation-filters="sRGB">
<feFlood flood-opacity="0" result="BackgroundImageFix"/>
<feColorMatrix in="SourceAlpha" type="matrix" values="0 0 0 0 0 0 0 0 0 0 0 0 0 0 0 0 0 0 127 0" result="hardAlpha"/>
<feOffset dy="5"/>
<feGaussianBlur stdDeviation="4.5"/>
<feComposite in2="hardAlpha" operator="out"/>
<feColorMatrix type="matrix" values="0 0 0 0 0 0 0 0 0 0 0 0 0 0 0 0 0 0 0.25 0"/>
<feBlend mode="normal" in2="BackgroundImageFix" result="effect1_dropShadow_2_2702"/>
<feBlend mode="normal" in="SourceGraphic" in2="effect1_dropShadow_2_2702" result="shape"/>
</filter>
</defs>
</svg>
