<svg width="35" height="30" viewBox="0 0 35 30" fill="none" xmlns="http://www.w3.org/2000/svg">
<path d="M30.966 20.6351L34.6893 26.493C34.7096 26.525 34.7286 26.5575 34.7462 26.5904C34.9061 26.8222 35 27.1045 35 27.409C35 28.1975 34.3709 28.8367 33.5948 28.8367H1.43066C0.753226 28.8367 0.187749 28.3497 0.0549376 27.7015C-0.0555874 27.2972 -0.00197326 26.8486 0.239673 26.4684L3.91192 20.6908L6.42792 22.3415L4.11441 25.9814H30.9069L28.5262 22.2357L30.966 20.6351Z" fill="white"/>
<path d="M17.4735 0.000514976C17.7516 -0.00700113 18.0349 0.0676301 18.2865 0.232704C18.4925 0.367868 18.6529 0.547593 18.7633 0.751307L22.8214 7.31584L19.0221 6.36406L17.5091 4.06868L15.9962 6.36393L12.1968 7.31572L16.256 0.74933C16.3665 0.546483 16.5264 0.367529 16.7317 0.232832C16.9619 0.0818183 17.2185 0.00649642 17.4735 0.000514976Z" fill="white"/>
<path d="M30.6324 16.4127C28.4214 12.5467 23.3939 9.06078 17.5127 9.06078C10.8953 9.06078 6.13863 13.3602 4.39299 16.4127C4.25986 16.6456 4.25986 16.916 4.39299 17.1489C6.60398 21.0149 11.6315 24.5008 17.5127 24.5008C24.1301 24.5008 28.8868 20.2012 30.6324 17.1489C30.7655 16.916 30.7655 16.6456 30.6324 16.4127ZM17.5127 21.857C12.7547 21.857 9.67789 20.1809 7.36383 16.7808C9.66821 13.3946 12.7426 11.7046 17.5127 11.7046C22.2703 11.7046 25.2955 13.3803 27.6095 16.7808C25.3051 20.1668 22.2828 21.857 17.5127 21.857Z" fill="white"/>
<path d="M21.1559 16.7279C21.1559 18.8013 19.5015 20.4822 17.4607 20.4822C15.4198 20.4822 13.7654 18.8013 13.7654 16.7279C13.7654 14.6545 15.4198 12.9737 17.4607 12.9737C19.5015 12.9737 21.1559 14.6545 21.1559 16.7279Z" fill="white"/>
<path d="M24.3307 30C25.739 30 26.8809 28.832 26.8809 27.3914C26.8809 27.3914 26.8809 24.7829 24.3307 22.1742C21.7804 24.7828 21.7804 27.3914 21.7804 27.3914C21.7804 28.832 22.9223 30 24.3307 30Z" fill="white"/>
</svg>
