<svg width="23" height="23" viewBox="0 0 23 23" fill="none" xmlns="http://www.w3.org/2000/svg">
<g opacity="0.5">
<path d="M18.7782 9.95123C18.7782 14.9008 14.7925 18.9025 9.8891 18.9025C4.98568 18.9025 1 14.9008 1 9.95123C1 5.00169 4.98568 1 9.8891 1C14.7925 1 18.7782 5.00169 18.7782 9.95123Z" stroke="white" stroke-width="2"/>
<path d="M21.4756 22.9491C21.0915 22.9367 20.7262 22.7786 20.453 22.5066L18.1111 19.7693C17.609 19.3101 17.5679 18.5298 18.019 18.0198C18.2302 17.8062 18.5173 17.686 18.8167 17.686C19.1162 17.686 19.4032 17.8062 19.6144 18.0198L22.5596 20.3764C22.9839 20.8107 23.1148 21.4553 22.8939 22.0222C22.6729 22.5891 22.1415 22.9723 21.537 23.0006L21.4756 22.9491Z" fill="white"/>
</g>
</svg>
